<?xml version="1.0" encoding="UTF-8"?>
<svg width="128" height="128" viewBox="0 0 128 128" fill="none" xmlns="http://www.w3.org/2000/svg" role="img" aria-label="QQQ">
  <title>QQQ</title>
  <!-- Match spx-mark.svg / spy-mark.svg: transparent background; the app provides the tile backdrop via CSS -->
  <g opacity="0.95">
    <path d="M30 44.5C30 35.94 36.94 29 45.5 29H82.5C91.06 29 98 35.94 98 44.5V83.5C98 92.06 91.06 99 82.5 99H45.5C36.94 99 30 92.06 30 83.5V44.5Z" fill="white" fill-opacity="0.06"/>
    <path d="M30.75 44.5C30.75 36.35 37.35 29.75 45.5 29.75H82.5C90.65 29.75 97.25 36.35 97.25 44.5V83.5C97.25 91.65 90.65 98.25 82.5 98.25H45.5C37.35 98.25 30.75 91.65 30.75 83.5V44.5Z" stroke="white" stroke-opacity="0.14" stroke-width="1.5"/>
  </g>
  <g fill="white">
    <text x="64" y="73" text-anchor="middle" font-family="-apple-system,BlinkMacSystemFont,Inter,system-ui,sans-serif" font-size="42" font-weight="800" letter-spacing="1.0">QQQ</text>
  </g>
</svg>


